<svg width="591" height="804" viewBox="0 0 591 804" fill="none" xmlns="http://www.w3.org/2000/svg">
<g opacity="0.3">
<rect x="172" y="685.906" width="134.177" height="762.367" rx="67.0884" transform="rotate(-29.9099 172 685.906)" fill="#F4F4F5"/>
<rect x="125.264" y="772.538" width="134.177" height="685.68" rx="67.0884" transform="rotate(-29.9099 125.264 772.538)" fill="#F4F4F5"/>
<rect x="261" y="569.906" width="134.177" height="740.276" rx="67.0884" transform="rotate(-29.9099 261 569.906)" fill="#F4F4F5"/>
<rect x="363" y="47.9056" width="134.177" height="525.039" rx="67.0884" transform="rotate(-29.9099 363 47.9056)" fill="#F4F4F5"/>
<rect x="534.354" y="686.332" width="134.177" height="525.039" rx="67.0884" transform="rotate(-29.9099 534.354 686.332)" fill="#F4F4F5"/>
<rect x="377" y="250.906" width="134.177" height="525.039" rx="67.0884" transform="rotate(-29.9099 377 250.906)" fill="#ECECEC"/>
<rect x="303.947" y="868.147" width="134.177" height="525.039" rx="67.0884" transform="rotate(-29.9099 303.947 868.147)" fill="#ECECEC"/>
<rect x="189.047" y="308.566" width="134.177" height="135.577" rx="67.0884" transform="rotate(-29.9099 189.047 308.566)" fill="#F4F4F5"/>
<rect x="290" y="444.906" width="134.177" height="525.039" rx="67.0884" transform="rotate(-29.9099 290 444.906)" fill="#E9EAEB"/>
<rect y="662.906" width="134.177" height="525.039" rx="67.0884" transform="rotate(-29.9099 0 662.906)" fill="#E9EAEB" fill-opacity="0.8"/>
</g>
</svg>
