<svg width="136" height="24" viewBox="0 0 136 24" fill="none" xmlns="http://www.w3.org/2000/svg">
<g clip-path="url(#clip0_187:750)">
<path d="M130.002 13.0356C129.47 13.047 128.965 13.2687 128.597 13.6519C128.228 14.0351 128.027 14.5487 128.038 15.0799C128.027 15.6116 128.227 16.1259 128.596 16.5097C128.964 16.8935 129.47 17.1155 130.002 17.1269H132.11C132.642 17.1155 133.148 16.8935 133.516 16.5097C133.884 16.1259 134.085 15.6116 134.074 15.0799C134.084 14.5487 133.883 14.0351 133.515 13.6519C133.147 13.2687 132.641 13.047 132.11 13.0356H130.002Z" fill="#FF5A34"/>
<path d="M133.122 19.8625H126.754V10.2647H133.122C133.654 10.2533 134.16 10.0313 134.528 9.64748C134.896 9.26365 135.097 8.74939 135.086 8.2177C135.092 7.95399 135.046 7.69165 134.951 7.44571C134.855 7.19977 134.712 6.97505 134.53 6.78442C134.347 6.59378 134.129 6.44098 133.888 6.33474C133.646 6.2285 133.386 6.17092 133.122 6.16528H124.945H124.79C124.258 6.17667 123.752 6.39866 123.384 6.7825C123.015 7.16633 122.815 7.68059 122.826 8.21228V21.9556C122.815 22.4873 123.015 23.0016 123.384 23.3854C123.752 23.7692 124.258 23.9912 124.79 24.0026C124.926 24.002 125.061 23.9875 125.194 23.9592H133.122C133.654 23.9478 134.16 23.7259 134.528 23.342C134.896 22.9582 135.097 22.4439 135.086 21.9122C135.092 21.6488 135.046 21.3867 134.95 21.1411C134.854 20.8955 134.711 20.6711 134.529 20.4807C134.347 20.2904 134.128 20.1378 133.887 20.0317C133.646 19.9257 133.386 19.8682 133.122 19.8625Z" fill="black"/>
<path d="M36.326 12.1003C35.7832 12.1011 35.2628 12.317 34.8793 12.7008C34.4957 13.0846 34.2803 13.6049 34.2803 14.1473V21.953C34.2803 22.4954 34.4957 23.0157 34.8793 23.3995C35.2628 23.7833 35.7832 23.9993 36.326 24C36.8695 24 37.3908 23.7844 37.7754 23.4006C38.1599 23.0168 38.3763 22.4962 38.3771 21.953V14.1473C38.3763 13.6042 38.1599 13.0835 37.7754 12.6997C37.3908 12.3159 36.8695 12.1003 36.326 12.1003Z" fill="#FF5A34"/>
<path d="M41.7845 6.20605H30.8697C30.3264 6.20605 29.8054 6.42171 29.4213 6.80559C29.0371 7.18948 28.8213 7.71015 28.8213 8.25305C28.8213 8.79594 29.0371 9.3166 29.4213 9.70048C29.8054 10.0844 30.3264 10.3 30.8697 10.3H41.7845C42.3278 10.3 42.8488 10.0844 43.233 9.70048C43.6171 9.3166 43.8329 8.79594 43.8329 8.25305C43.8329 7.71015 43.6171 7.18948 43.233 6.80559C42.8488 6.42171 42.3278 6.20605 41.7845 6.20605Z" fill="black"/>
<path d="M5.60223 14.6409C5.11436 14.4022 4.5516 14.3669 4.03772 14.5429C3.52384 14.7188 3.10093 15.0915 2.86199 15.5789L0.20857 21.0503C0.0899452 21.2916 0.0201279 21.554 0.00311639 21.8223C-0.0138952 22.0906 0.0222328 22.3597 0.109433 22.6141C0.196632 22.8684 0.333191 23.1031 0.511286 23.3047C0.689381 23.5062 0.905511 23.6707 1.1473 23.7886C1.42715 23.9278 1.73548 24.0002 2.04806 24.0001C2.43133 24.0001 2.80691 23.8926 3.13209 23.6898C3.45727 23.4871 3.71901 23.1972 3.88755 22.8532L6.53826 17.3819C6.7774 16.8943 6.81314 16.3318 6.63765 15.8179C6.46216 15.304 6.08976 14.8807 5.60223 14.6409Z" fill="#FF5A34"/>
<path d="M17.4615 21.0502L10.7167 7.3096C10.5987 7.06797 10.4341 6.85199 10.2324 6.67401C10.0307 6.49604 9.79589 6.35958 9.54134 6.27244C9.2868 6.1853 9.01755 6.1492 8.74903 6.1662C8.4805 6.1832 8.21797 6.25297 7.97647 6.37151C7.48864 6.61029 7.1157 7.03291 6.93966 7.54643C6.76362 8.05996 6.7989 8.62233 7.03773 9.10987L13.7825 22.8532C13.9518 23.1972 14.214 23.487 14.5396 23.6897C14.8652 23.8924 15.2411 23.9999 15.6247 24.0001C15.9364 24.0001 16.2439 23.9277 16.5228 23.7886C16.7646 23.6706 16.9807 23.5062 17.1588 23.3046C17.3369 23.1031 17.4734 22.8684 17.5606 22.614C17.6478 22.3597 17.684 22.0906 17.6669 21.8223C17.6499 21.5539 17.5801 21.2916 17.4615 21.0502Z" fill="black"/>
<path d="M89.1831 14.6409C88.6952 14.4022 88.1324 14.3669 87.6185 14.5429C87.1047 14.7188 86.6817 15.0915 86.4428 15.5789L83.7921 21.0503C83.6734 21.2914 83.6034 21.5536 83.5862 21.8219C83.569 22.0901 83.6049 22.3591 83.6919 22.6134C83.7788 22.8678 83.9151 23.1025 84.0929 23.3041C84.2707 23.5058 84.4866 23.6704 84.7281 23.7886C85.008 23.9278 85.3163 24.0002 85.6289 24.0001C86.0122 24.0001 86.3877 23.8926 86.7129 23.6898C87.0381 23.4871 87.2998 23.1972 87.4684 22.8532L90.1218 17.3819C90.3607 16.894 90.3961 16.3312 90.2201 15.8173C90.0441 15.3033 89.6711 14.8802 89.1831 14.6409Z" fill="#FF5A34"/>
<path d="M94.3022 7.30952C94.1839 7.06779 94.0191 6.85175 93.8171 6.67375C93.6152 6.49575 93.3801 6.35927 93.1253 6.27214C92.8706 6.18502 92.6011 6.14894 92.3324 6.16597C92.0637 6.18301 91.8009 6.25283 91.5592 6.37143C91.0719 6.61069 90.6995 7.03352 90.524 7.547C90.3485 8.06048 90.3842 8.62259 90.6232 9.10979L97.368 22.8531C97.5365 23.1971 97.7983 23.487 98.1235 23.6897C98.4486 23.8924 98.8242 24 99.2075 24C99.5201 24.0001 99.8284 23.9277 100.108 23.7885C100.35 23.6703 100.566 23.5057 100.743 23.304C100.921 23.1024 101.058 22.8677 101.145 22.6133C101.231 22.359 101.267 22.09 101.25 21.8217C101.233 21.5535 101.163 21.2913 101.044 21.0502L94.3022 7.30952Z" fill="black"/>
<path d="M110.318 21.0502L103.573 7.3096C103.455 7.06797 103.291 6.85199 103.089 6.67401C102.887 6.49604 102.652 6.35958 102.398 6.27244C102.143 6.1853 101.874 6.1492 101.605 6.1662C101.337 6.1832 101.074 6.25297 100.833 6.37151C100.345 6.61029 99.9721 7.03291 99.7961 7.54643C99.6201 8.05996 99.6553 8.62233 99.8942 9.10987L106.639 22.8532C106.808 23.1972 107.069 23.487 107.394 23.6898C107.72 23.8925 108.095 24 108.478 24.0001C108.791 24.0001 109.099 23.9277 109.379 23.7886C109.621 23.6706 109.837 23.5062 110.015 23.3046C110.193 23.1031 110.33 22.8684 110.417 22.614C110.504 22.3597 110.54 22.0906 110.523 21.8223C110.506 21.5539 110.437 21.2916 110.318 21.0502Z" fill="black"/>
<path d="M63.7933 6.16528C61.4273 6.16815 59.159 7.10849 57.4857 8.78011C55.8124 10.4517 54.8708 12.7182 54.8672 15.0826C54.8701 17.4475 55.8114 19.7146 57.4848 21.3868C59.1581 23.059 61.4268 23.9997 63.7933 24.0026C66.1593 23.999 68.4274 23.058 70.1001 21.3859C71.7729 19.7137 72.7139 17.447 72.7167 15.0826C72.7139 12.7185 71.7728 10.452 70.1 8.78027C68.4271 7.10858 66.1591 6.16815 63.7933 6.16528ZM63.7933 19.9086C62.5129 19.9072 61.2854 19.3983 60.38 18.4935C59.4747 17.5888 58.9654 16.3621 58.964 15.0826C58.9661 13.8036 59.4757 12.5776 60.381 11.6734C61.2863 10.7692 62.5134 10.2607 63.7933 10.2593C65.073 10.2607 66.2998 10.7693 67.2047 11.6736C68.1095 12.5778 68.6185 13.8038 68.6199 15.0826C68.6185 16.3614 68.1095 17.5874 67.2047 18.4916C66.2998 19.3958 65.073 19.9045 63.7933 19.9059V19.9086Z" fill="black"/>
<path d="M67.2065 0H60.44C59.8967 0 59.3757 0.215654 58.9916 0.59954C58.6074 0.983426 58.3916 1.5041 58.3916 2.04699C58.3916 2.58989 58.6074 3.11056 58.9916 3.49444C59.3757 3.87833 59.8967 4.09398 60.44 4.09398H67.2065C67.7498 4.09398 68.2708 3.87833 68.6549 3.49444C69.0391 3.11056 69.2549 2.58989 69.2549 2.04699C69.2549 1.5041 69.0391 0.983426 68.6549 0.59954C68.2708 0.215654 67.7498 0 67.2065 0Z" fill="#FF5A34"/>
</g>
<defs>
<clipPath id="clip0_187:750">
<rect width="135.086" height="24" fill="white"/>
</clipPath>
</defs>
</svg>
