<svg width="165" height="165" viewBox="0 0 165 165" fill="none" xmlns="http://www.w3.org/2000/svg">
<g clip-path="url(#clip0_346:832)">
<circle cx="82.5" cy="82.5" r="82.5" fill="#EB5C3D"/>
<g style="mix-blend-mode:multiply">
<rect x="70.4365" y="97.1932" width="23.8766" height="135.662" rx="11.9383" transform="rotate(-29.9099 70.4365 97.1932)" fill="#F4F4F5"/>
<rect x="51.749" y="112.534" width="23.8766" height="122.016" rx="11.9383" transform="rotate(-29.9099 51.749 112.534)" fill="#F4F4F5"/>
<rect x="40.3135" y="135.963" width="23.8766" height="93.43" rx="11.9383" transform="rotate(-29.9099 40.3135 135.963)" fill="#F4F4F5"/>
<rect x="91.0771" y="85.1997" width="23.8766" height="131.731" rx="11.9383" transform="rotate(-29.9099 91.0771 85.1997)" fill="#F4F4F5"/>
<rect x="100.839" y="55.0765" width="23.8766" height="93.43" rx="11.9383" transform="rotate(-29.9099 100.839 55.0765)" fill="#F4F4F5"/>
<rect x="124.547" y="97.1932" width="23.8766" height="93.43" rx="11.9383" transform="rotate(-29.9099 124.547 97.1932)" fill="#F4F4F5"/>
<rect x="121.479" y="50.8927" width="23.8766" height="93.43" rx="11.9383" transform="rotate(-29.9099 121.479 50.8927)" fill="#ECECEC"/>
<rect x="83.5459" y="129.548" width="23.8766" height="93.43" rx="11.9383" transform="rotate(-29.9099 83.5459 129.548)" fill="#ECECEC"/>
<rect x="85.7773" y="28.0214" width="23.8766" height="24.1257" rx="11.9383" transform="rotate(-29.9099 85.7773 28.0214)" fill="#F4F4F5"/>
<rect x="57.6064" y="26.9058" width="23.8766" height="93.43" rx="11.9383" transform="rotate(-29.9099 57.6064 26.9058)" fill="#E9EAEB"/>
<rect x="18" y="55.0765" width="23.8766" height="93.43" rx="11.9383" transform="rotate(-29.9099 18 55.0765)" fill="#E9EAEB"/>
</g>
<path d="M82.3298 95.4448C91.9245 95.4331 101.123 91.614 107.909 84.8249C114.694 78.0357 118.513 68.8306 118.527 59.2279C118.516 49.6232 114.698 40.4153 107.912 33.6237C101.127 26.8322 91.9265 23.0117 82.3298 23C72.7352 23.0146 63.5378 26.8364 56.7543 33.6276C49.9709 40.4188 46.155 49.6251 46.1433 59.2279C46.155 68.8296 49.9712 78.0347 56.755 84.8242C63.5387 91.6137 72.7362 95.4331 82.3298 95.4448V95.4448ZM82.3298 39.6274C87.5221 39.6332 92.5 41.7001 96.1714 45.3747C99.8429 49.0492 101.908 54.0313 101.914 59.2279C101.905 64.4225 99.8387 69.4018 96.1675 73.074C92.4964 76.7462 87.5202 78.8116 82.3298 78.8174C77.1405 78.8116 72.1654 76.7458 68.496 73.0733C64.8266 69.4008 62.7626 64.4215 62.7568 59.2279C62.7626 54.0342 64.8266 49.055 68.496 45.3825C72.1654 41.71 77.1405 39.6442 82.3298 39.6384L82.3298 39.6274Z" fill="#FF5A34"/>
<path d="M82.3298 95.4448C91.9245 95.4331 101.123 91.614 107.909 84.8249C114.694 78.0357 118.513 68.8306 118.527 59.2279C118.516 49.6232 114.698 40.4153 107.912 33.6237C101.127 26.8322 91.9265 23.0117 82.3298 23C72.7352 23.0146 63.5378 26.8364 56.7543 33.6276C49.9709 40.4188 46.155 49.6251 46.1433 59.2279C46.155 68.8296 49.9712 78.0347 56.755 84.8242C63.5387 91.6137 72.7362 95.4331 82.3298 95.4448V95.4448ZM82.3298 39.6274C87.5221 39.6332 92.5 41.7001 96.1714 45.3747C99.8429 49.0492 101.908 54.0313 101.914 59.2279C101.905 64.4225 99.8387 69.4018 96.1675 73.074C92.4964 76.7462 87.5202 78.8116 82.3298 78.8174C77.1405 78.8116 72.1654 76.7458 68.496 73.0733C64.8266 69.4008 62.7626 64.4215 62.7568 59.2279C62.7626 54.0342 64.8266 49.055 68.496 45.3825C72.1654 41.71 77.1405 39.6442 82.3298 39.6384L82.3298 39.6274Z" fill="white" fill-opacity="0.8"/>
<path d="M117.42 142.786C122.158 142.786 126.086 138.907 125.147 134.262C123.483 126.033 119.43 118.405 113.406 112.38C105.342 104.316 94.4043 99.7857 83 99.7857C71.5957 99.7857 60.6585 104.316 52.5944 112.38C46.5697 118.405 42.5175 126.033 40.8531 134.262C39.9137 138.907 43.8416 142.786 48.5805 142.786V142.786C53.3193 142.786 57.0276 138.842 58.5726 134.362C59.8392 130.689 61.9298 127.314 64.729 124.515C69.5748 119.669 76.147 116.947 83 116.947C89.853 116.947 96.4252 119.669 101.271 124.515C104.07 127.314 106.161 130.689 107.427 134.362C108.972 138.842 112.681 142.786 117.42 142.786V142.786Z" fill="#FF5A34"/>
<path d="M117.42 142.786C122.158 142.786 126.086 138.907 125.147 134.262C123.483 126.033 119.43 118.405 113.406 112.38C105.342 104.316 94.4043 99.7857 83 99.7857C71.5957 99.7857 60.6585 104.316 52.5944 112.38C46.5697 118.405 42.5175 126.033 40.8531 134.262C39.9137 138.907 43.8416 142.786 48.5805 142.786V142.786C53.3193 142.786 57.0276 138.842 58.5726 134.362C59.8392 130.689 61.9298 127.314 64.729 124.515C69.5748 119.669 76.147 116.947 83 116.947C89.853 116.947 96.4252 119.669 101.271 124.515C104.07 127.314 106.161 130.689 107.427 134.362C108.972 138.842 112.681 142.786 117.42 142.786V142.786Z" fill="white" fill-opacity="0.8"/>
</g>
<defs>
<clipPath id="clip0_346:832">
<rect width="165" height="165" rx="82.5" fill="white"/>
</clipPath>
</defs>
</svg>
